<svg width="31" height="32" viewBox="0 0 31 32" fill="none" xmlns="http://www.w3.org/2000/svg">
<path d="M26.3752 16.8499L1.48639 16.8567C1.48616 16.8567 1.48593 16.8567 1.4857 16.8567C1.32286 16.8573 1.16151 16.8257 1.01092 16.7637C0.860132 16.7016 0.723127 16.6102 0.607813 16.4949C0.492499 16.3796 0.401158 16.2426 0.339059 16.0918C0.27709 15.9413 0.245467 15.7801 0.245999 15.6174C0.246 15.617 0.246002 15.6167 0.246003 15.6163L0.496001 15.6174C0.495469 15.4873 0.520695 15.3584 0.570226 15.2381C0.619757 15.1178 0.692612 15.0086 0.78459 14.9166C0.876567 14.8246 0.985845 14.7517 1.10612 14.7022C1.2264 14.6527 1.35529 14.6275 1.48536 14.628L26.3752 16.8499ZM26.3752 16.8499L14.5465 28.6785C14.3149 28.9102 14.1847 29.2244 14.1847 29.552C14.1847 29.8797 14.3149 30.1939 14.5465 30.4256C14.7782 30.6572 15.0924 30.7874 15.4201 30.7874C15.7477 30.7874 16.0619 30.6572 16.2936 30.4256L30.2283 16.4909L30.2304 16.4887C30.3429 16.3735 30.4318 16.2373 30.492 16.088C30.6162 15.7865 30.6162 15.4482 30.492 15.1467C30.4318 14.9974 30.3429 14.8612 30.2304 14.746L30.2304 14.746L30.2283 14.7438L16.2936 0.809154C16.0619 0.577484 15.7477 0.447334 15.4201 0.447334C15.0924 0.447334 14.7782 0.577484 14.5465 0.809154C14.3149 1.04082 14.1847 1.35504 14.1847 1.68267C14.1847 2.0103 14.3149 2.32451 14.5465 2.55618L26.3752 14.3848L1.48639 14.378C1.4863 14.378 1.48621 14.378 1.48613 14.378L26.3752 16.8499Z" fill="#C170FF" stroke="#C170FF" stroke-width="0.5"/>
</svg>
