<svg width="66" height="66" viewBox="0 0 66 66" fill="none" xmlns="http://www.w3.org/2000/svg">
<g clip-path="url(#clip0_2152_3889)">
<path d="M24.9874 38.8H8.71029C7.2207 38.8 6.00195 40.0187 6.00195 41.5083C6.00195 42.9979 7.2207 44.2167 8.71029 44.2167H24.9874V49.0646C24.9874 50.2833 26.4499 50.8792 27.2895 50.0125L34.8186 42.4562C35.3332 41.9146 35.3332 41.075 34.8186 40.5333L27.2895 32.9771C26.4499 32.1104 24.9874 32.7333 24.9874 33.925V38.8ZM41.1832 32.8146V27.9667H57.4603C58.9499 27.9667 60.1686 26.7479 60.1686 25.2583C60.1686 23.7687 58.9499 22.55 57.4603 22.55H41.1832V17.7021C41.1832 16.4833 39.7207 15.8875 38.8811 16.7542L31.352 24.3104C30.8374 24.8521 30.8374 25.6917 31.352 26.2333L38.8811 33.7896C39.7207 34.6292 41.1832 34.0333 41.1832 32.8146Z" fill="#38FFB7"/>
</g>
<defs>
<clipPath id="clip0_2152_3889">
<rect width="65" height="65" fill="white" transform="translate(0.585938 0.882812)"/>
</clipPath>
</defs>
</svg>
