<svg width="25" height="25" viewBox="0 0 25 25" fill="none" xmlns="http://www.w3.org/2000/svg">
<path d="M18.1063 22.0748C17.9442 22.0744 17.7846 22.0346 17.6413 21.9588L12.5443 19.2788L7.44732 21.9588C7.28228 22.0453 7.09637 22.084 6.91055 22.0704C6.72473 22.0569 6.54639 21.9917 6.39563 21.8822C6.24488 21.7727 6.12771 21.6233 6.05733 21.4508C5.98695 21.2783 5.96617 21.0895 5.99732 20.9058L6.97032 15.2298L2.84632 11.2098C2.71291 11.0796 2.61857 10.9146 2.57396 10.7336C2.52935 10.5526 2.53625 10.3626 2.59387 10.1853C2.65149 10.008 2.75753 9.8503 2.90004 9.73006C3.04254 9.60982 3.21582 9.53181 3.40032 9.50485L9.09932 8.67685L11.6483 3.51285C11.7401 3.35669 11.8712 3.22722 12.0284 3.13727C12.1857 3.04732 12.3637 3 12.5448 3C12.726 3 12.904 3.04732 13.0612 3.13727C13.2185 3.22722 13.3495 3.35669 13.4413 3.51285L15.9893 8.67685L21.6883 9.50485C21.8728 9.53181 22.0461 9.60982 22.1886 9.73006C22.3311 9.8503 22.4372 10.008 22.4948 10.1853C22.5524 10.3626 22.5593 10.5526 22.5147 10.7336C22.4701 10.9146 22.3757 11.0796 22.2423 11.2098L18.1183 15.2298L19.0923 20.9058C19.1169 21.0493 19.1099 21.1964 19.0717 21.3369C19.0336 21.4774 18.9652 21.6079 18.8714 21.7192C18.7776 21.8305 18.6607 21.92 18.5287 21.9815C18.3967 22.0429 18.2519 22.0748 18.1063 22.0748Z" fill="#FFBD00"/>
</svg>
